<?xml version="1.0" encoding="UTF-8"?>
<svg xmlns="http://www.w3.org/2000/svg" viewBox="0 0 24 24" width="512" height="512">
  <path d="M22,4H17V2a1,1,0,0,0-1-1H8A1,1,0,0,0,7,2V4H2A1,1,0,0,0,1,5V8a4,4,0,0,0,4,4h.1a6.982,6.982,0,0,0,4.9,6.531V21a1,1,0,0,0,1,1h2a1,1,0,0,0,1-1V18.531A6.982,6.982,0,0,0,18.9,12H19a4,4,0,0,0,4-4V5A1,1,0,0,0,22,4ZM5,10A2,2,0,0,1,3,8V6H7V8a6.944,6.944,0,0,0,.252,1.851A1.988,1.988,0,0,1,5,10Zm13,0a2,2,0,0,1-2.252-.149A6.944,6.944,0,0,0,16,8V6h5V8A2,2,0,0,1,19,10Zm-7,6a5,5,0,0,1-5-5V2h10V11A5,5,0,0,1,12,16Z"/>
</svg>