<?xml version="1.0" encoding="UTF-8"?>
<svg xmlns="http://www.w3.org/2000/svg" viewBox="0 0 24 24" width="512" height="512">
  <path d="M12,2a10,10,0,1,0,10,10A10.011,10.011,0,0,0,12,2Zm5,11H7a1,1,0,0,1,0-2H17a1,1,0,0,1,0,2Z"/>
  <path d="M21.294,22.292l-5.673-5.673A3,3,0,0,0,17,13.338V13a1,1,0,0,0-1-1H8a1,1,0,0,0-1,1v.338a3,3,0,0,0,1.379,3.281l-5.673,5.673a1,1,0,0,0,1.414,1.414l5.673-5.673a3.014,3.014,0,0,0,3.414,0l5.673,5.673a1,1,0,0,0,1.414-1.414ZM9,13h6v.338a1,1,0,0,1-1,1H10a1,1,0,0,1-1-1Z"/>
</svg>